<?xml version="1.0" encoding="UTF-8" standalone="no"?>
<!-- Created with Inkscape (http://www.inkscape.org/) -->

<svg
   width="452.20819mm"
   height="452.19937mm"
   viewBox="0 0 452.20819 452.19937"
   version="1.1"
   id="svg5"
   sodipodi:docname="B-11.svg"
   inkscape:version="1.1.2 (b8e25be833, 2022-02-05)"
   xmlns:inkscape="http://www.inkscape.org/namespaces/inkscape"
   xmlns:sodipodi="http://sodipodi.sourceforge.net/DTD/sodipodi-0.dtd"
   xmlns="http://www.w3.org/2000/svg"
   xmlns:svg="http://www.w3.org/2000/svg">
  <sodipodi:namedview
     id="namedview7"
     pagecolor="#ffffff"
     bordercolor="#666666"
     borderopacity="1.0"
     inkscape:pageshadow="2"
     inkscape:pageopacity="0.0"
     inkscape:pagecheckerboard="0"
     inkscape:document-units="mm"
     showgrid="false"
     inkscape:zoom="0.32026164"
     inkscape:cx="-35.90814"
     inkscape:cy="743.14238"
     inkscape:window-width="2304"
     inkscape:window-height="1190"
     inkscape:window-x="2293"
     inkscape:window-y="-11"
     inkscape:window-maximized="1"
     inkscape:current-layer="g2950" />
  <defs
     id="defs2" />
  <g
     inkscape:label="Calque 1"
     inkscape:groupmode="layer"
     id="layer1"
     transform="translate(40.437744,6.9785345)">
    <g
       id="g2950"
       transform="matrix(25,0,0,25,-3775.4613,-5207.8686)">
      <g
         id="g1778"
         transform="matrix(0.35277777,0,0,-0.35277777,150.44587,226.07948)">
        <path
           d="m 0,0 h 45.349 c 1.566,0 2.838,1.271 2.838,2.838 v 45.348 c 0,1.567 -1.272,2.837 -2.838,2.837 H 0 c -1.567,0 -2.837,-1.27 -2.837,-2.837 V 2.838 C -2.837,1.271 -1.567,0 0,0"
           style="fill:#ffffff;fill-opacity:1;fill-rule:nonzero;stroke:none"
           id="path1780" />
      </g>
      <g
         id="g1782"
         transform="matrix(0.35277777,0,0,-0.35277777,150.44587,226.07948)"
         style="stroke:#000000;stroke-opacity:1">
        <path
           d="m 0,0 h 45.349 c 1.566,0 2.838,1.271 2.838,2.838 v 45.348 c 0,1.567 -1.272,2.837 -2.838,2.837 H 0 c -1.567,0 -2.837,-1.27 -2.837,-2.837 V 2.838 C -2.837,1.271 -1.567,0 0,0 Z"
           style="fill:none;stroke:#000000;stroke-width:0.25;stroke-linecap:round;stroke-linejoin:round;stroke-miterlimit:10;stroke-dasharray:none;stroke-opacity:1"
           id="path1784" />
      </g>
      <g
         id="g1786"
         transform="matrix(0.35277777,0,0,-0.35277777,150.44637,225.70533)"
         style="fill:#000000;fill-opacity:1">
        <path
           d="m 0,0 h 12.931 v 19.029 h 1.048 V 0 h 31.366 c 0.983,0 1.78,0.796 1.78,1.778 v 45.347 c 0,0.982 -0.797,1.778 -1.78,1.778 H 0 c -0.982,0 -1.779,-0.796 -1.779,-1.778 V 1.778 C -1.779,0.796 -0.982,0 0,0"
           style="fill:#000000;fill-opacity:1;fill-rule:nonzero;stroke:none"
           id="path1788" />
      </g>
      <g
         id="g1790"
         transform="matrix(0.35277777,0,0,-0.35277777,157.90846,211.9851)">
        <path
           d="m 0,0 -0.243,-0.001 -0.242,-0.005 -0.243,-0.008 -0.241,-0.011 -0.24,-0.014 -0.24,-0.016 -0.238,-0.02 -0.239,-0.022 -0.236,-0.026 -0.236,-0.028 -0.236,-0.032 -0.234,-0.034 -0.234,-0.038 -0.232,-0.04 -0.231,-0.043 -0.231,-0.046 -0.229,-0.048 -0.229,-0.051 -0.227,-0.054 -0.226,-0.057 -0.226,-0.06 -0.223,-0.062 -0.223,-0.065 -0.222,-0.068 -0.221,-0.069 -0.219,-0.074 -0.219,-0.075 -0.217,-0.078 -0.215,-0.081 -0.215,-0.083 -0.213,-0.086 -0.212,-0.088 -0.211,-0.09 -0.209,-0.094 -0.208,-0.095 -0.207,-0.098 -0.205,-0.101 -0.204,-0.103 -0.202,-0.105 -0.201,-0.108 -0.2,-0.11 -0.197,-0.113 -0.197,-0.114 -0.195,-0.117 -0.193,-0.12 -0.192,-0.121 -0.191,-0.124 -0.189,-0.126 -0.187,-0.128 -0.185,-0.13 -0.184,-0.133 -0.182,-0.135 -0.181,-0.136 -0.179,-0.139 -0.177,-0.142 -0.175,-0.142 -0.174,-0.146 -0.172,-0.147 -0.17,-0.149 -0.168,-0.151 -0.166,-0.153 -0.165,-0.155 -0.163,-0.157 -0.161,-0.159 -0.158,-0.161 -0.158,-0.163 -0.154,-0.165 -0.154,-0.166 -0.151,-0.169 -0.149,-0.17 -0.147,-0.171 -0.145,-0.174 -0.143,-0.176 -0.141,-0.177 -0.138,-0.179 -0.137,-0.181 -0.135,-0.182 -0.133,-0.184 -0.13,-0.185 -0.128,-0.187 -0.126,-0.189 -0.124,-0.191 -0.121,-0.192 -0.119,-0.194 -0.117,-0.194 -0.115,-0.197 -0.112,-0.198 -0.11,-0.2 -0.108,-0.201 -0.105,-0.202 -0.103,-0.204 -0.1,-0.205 -0.099,-0.207 -0.095,-0.208 -0.093,-0.21 -0.09,-0.21 -0.089,-0.212 -0.086,-0.213 -0.083,-0.215 -0.08,-0.216 -0.078,-0.217 -0.076,-0.218 -0.072,-0.22 -0.071,-0.22 -0.067,-0.222 -0.065,-0.223 -0.062,-0.224 -0.06,-0.225 -0.056,-0.227 -0.054,-0.227 -0.052,-0.228 -0.048,-0.23 -0.045,-0.23 -0.044,-0.232 -0.04,-0.232 -0.037,-0.233 -0.034,-0.234 -0.031,-0.236 -0.029,-0.236 -0.026,-0.237 -0.023,-0.238 -0.019,-0.238 -0.017,-0.24 -0.013,-0.24 -0.011,-0.241 -0.008,-0.242 -0.005,-0.243 -10e-4,-0.243 0.031,-14.282 h 4.55 l -0.011,14.297 0.004,0.369 0.014,0.366 0.023,0.363 0.032,0.361 0.041,0.358 0.05,0.356 0.059,0.353 0.067,0.35 0.075,0.347 0.084,0.343 0.092,0.341 0.101,0.337 0.108,0.333 0.116,0.33 0.124,0.326 0.132,0.322 0.139,0.318 0.146,0.314 0.154,0.31 0.162,0.305 0.168,0.302 0.175,0.296 0.183,0.291 0.189,0.288 0.195,0.282 0.202,0.277 0.209,0.273 0.215,0.266 0.221,0.262 0.229,0.256 0.232,0.251 0.24,0.245 0.245,0.239 0.25,0.233 0.257,0.228 0.261,0.221 0.267,0.215 0.272,0.208 0.278,0.203 0.282,0.195 0.287,0.189 0.293,0.183 0.296,0.175 0.301,0.168 0.306,0.161 0.309,0.154 0.315,0.147 0.318,0.139 0.322,0.132 0.326,0.123 0.33,0.117 0.333,0.107 0.337,0.101 0.34,0.092 0.344,0.084 0.346,0.075 0.351,0.067 0.352,0.059 0.356,0.05 0.358,0.041 0.361,0.032 0.364,0.023 0.366,0.014 0.368,0.004 -1.04,-2.688 -0.039,-0.099 -0.029,-0.1 -0.021,-0.101 -0.011,-0.101 -0.003,-0.102 0.007,-0.1 0.015,-0.1 0.022,-0.098 0.032,-0.095 0.04,-0.093 0.047,-0.089 0.054,-0.086 0.063,-0.08 0.07,-0.076 0.077,-0.071 0.084,-0.064 0.085,-0.053 0.088,-0.045 0.09,-0.038 0.092,-0.03 0.094,-0.023 0.095,-0.013 0.096,-0.007 0.095,10e-4 0.095,0.009 0.095,0.016 0.093,0.025 0.091,0.032 0.088,0.039 0.086,0.047 0.082,0.055 0.079,0.062 8.874,6.27 L 0.746,4.027 0.665,4.081 0.581,4.126 0.494,4.166 0.405,4.198 0.314,4.222 0.223,4.239 0.13,4.249 0.036,4.251 -0.057,4.247 -0.148,4.234 -0.24,4.215 -0.33,4.189 -0.418,4.155 -0.504,4.113 -0.588,4.065 -0.667,4.009 -0.746,3.944 -0.818,3.873 -0.883,3.797 -0.94,3.717 -0.991,3.632 -1.034,3.544 -1.07,3.453 -1.098,3.36 -1.118,3.265 -1.13,3.167 -1.134,3.069 -1.13,2.971 -1.118,2.873 -1.097,2.774 -1.068,2.678 -1.03,2.583 Z"
           style="fill:#ffffff;fill-opacity:1;fill-rule:nonzero;stroke:none"
           id="path1792" />
      </g>
      <g
         id="g1794"
         transform="matrix(0.35277777,0,0,-0.35277777,157.52708,223.67273)">
        <path
           d="m 0,0 h 4.751 v 6.553 l 0.02,0.231 0.026,0.229 0.031,0.229 0.035,0.226 0.042,0.226 0.047,0.224 0.052,0.223 0.058,0.221 0.062,0.22 0.067,0.217 0.073,0.217 0.077,0.213 0.083,0.213 0.087,0.21 0.092,0.207 0.097,0.206 0.102,0.204 0.106,0.2 0.111,0.198 0.116,0.196 0.121,0.193 0.125,0.191 0.129,0.187 0.135,0.185 0.138,0.181 0.143,0.179 0.147,0.175 0.152,0.172 0.156,0.169 0.16,0.165 0.164,0.161 0.168,0.158 0.169,0.152 0.172,0.147 0.175,0.142 0.177,0.139 0.181,0.133 0.183,0.13 0.186,0.125 0.189,0.12 0.191,0.117 0.193,0.111 0.197,0.107 0.198,0.102 0.2,0.098 0.203,0.093 0.204,0.088 0.207,0.083 0.209,0.079 0.21,0.074 0.212,0.069 0.213,0.064 0.215,0.06 0.217,0.055 0.218,0.049 0.219,0.044 0.22,0.04 0.222,0.035 0.222,0.029 0.223,0.024 0.226,0.019 0.224,0.014 0.226,0.009 0.226,0.004 -1.219,-2.661 -0.04,-0.098 -0.03,-0.1 -0.02,-0.101 -0.012,-0.101 -0.001,-0.102 0.006,-0.1 0.015,-0.1 0.023,-0.098 0.03,-0.095 0.04,-0.094 0.047,-0.089 0.056,-0.085 0.061,-0.081 0.071,-0.076 0.077,-0.07 0.084,-0.064 0.085,-0.053 0.088,-0.046 0.09,-0.038 0.091,-0.03 0.095,-0.022 0.095,-0.014 0.096,-0.007 0.095,0.001 0.095,0.01 0.095,0.016 0.092,0.024 0.091,0.032 0.089,0.04 0.086,0.047 0.083,0.055 0.078,0.062 8.873,6.27 -8.939,6.385 -0.081,0.054 -0.084,0.046 -0.087,0.04 -0.089,0.031 -0.091,0.025 -0.092,0.017 -0.092,0.01 -0.093,0.002 -0.093,-0.004 -0.093,-0.013 -0.091,-0.019 -0.09,-0.027 -0.088,-0.034 -0.086,-0.041 -0.083,-0.048 -0.08,-0.056 -0.079,-0.065 -0.073,-0.071 -0.064,-0.076 -0.059,-0.08 -0.049,-0.085 -0.043,-0.088 -0.037,-0.091 -0.027,-0.094 -0.02,-0.095 -0.012,-0.097 -0.005,-0.098 0.005,-0.098 0.012,-0.099 0.021,-0.098 0.029,-0.097 0.037,-0.095 1.032,-2.576 L 13.899,20.125 13.581,20.112 13.263,20.091 12.945,20.063 12.63,20.029 12.314,19.987 12.001,19.939 11.689,19.883 11.379,19.822 11.07,19.753 10.764,19.677 10.459,19.595 10.155,19.506 9.855,19.411 9.557,19.308 9.261,19.2 8.966,19.085 8.676,18.963 8.388,18.836 8.102,18.701 7.819,18.561 7.539,18.414 7.263,18.261 6.988,18.102 6.719,17.937 6.452,17.765 6.188,17.588 5.929,17.404 5.673,17.215 5.421,17.02 5.174,16.818 4.929,16.611 4.655,16.366 4.388,16.115 4.128,15.858 3.874,15.595 3.628,15.326 3.39,15.052 3.158,14.772 2.935,14.487 2.719,14.196 2.511,13.9 2.309,13.6 2.116,13.294 1.931,12.985 1.753,12.67 1.583,12.352 1.423,12.029 1.27,11.703 1.124,11.373 0.987,11.039 0.859,10.701 0.739,10.36 0.628,10.017 0.525,9.669 0.432,9.32 0.346,8.967 0.27,8.612 0.202,8.254 0.144,7.895 0.094,7.533 0.054,7.17 0.021,6.804 0,6.437 Z"
           style="fill:#ffffff;fill-opacity:1;fill-rule:nonzero;stroke:none"
           id="path1796" />
      </g>
    </g>
  </g>
</svg>
