<?xml version="1.0" encoding="UTF-8" standalone="no"?>
<!-- Created with Inkscape (http://www.inkscape.org/) -->

<svg
   width="602.2005mm"
   height="452.19937mm"
   viewBox="0 0 602.2005 452.19937"
   version="1.1"
   id="svg5"
   inkscape:version="1.1.2 (b8e25be833, 2022-02-05)"
   sodipodi:docname="B-12.svg"
   xmlns:inkscape="http://www.inkscape.org/namespaces/inkscape"
   xmlns:sodipodi="http://sodipodi.sourceforge.net/DTD/sodipodi-0.dtd"
   xmlns="http://www.w3.org/2000/svg"
   xmlns:svg="http://www.w3.org/2000/svg">
  <sodipodi:namedview
     id="namedview7"
     pagecolor="#ffffff"
     bordercolor="#666666"
     borderopacity="1.0"
     inkscape:pageshadow="2"
     inkscape:pageopacity="0.0"
     inkscape:pagecheckerboard="0"
     inkscape:document-units="mm"
     showgrid="false"
     inkscape:zoom="0.64052329"
     inkscape:cx="-36.688752"
     inkscape:cy="705.67301"
     inkscape:window-width="2304"
     inkscape:window-height="1190"
     inkscape:window-x="2293"
     inkscape:window-y="-11"
     inkscape:window-maximized="1"
     inkscape:current-layer="g3036" />
  <defs
     id="defs2" />
  <g
     inkscape:label="Calque 1"
     inkscape:groupmode="layer"
     id="layer1"
     transform="translate(-114.76961,-159.90317)">
    <g
       id="g3036"
       transform="matrix(25,0,0,25,-4312.8909,-5040.9869)">
      <g
         id="g1798"
         transform="matrix(0.35277777,0,0,-0.35277777,178.15029,226.07948)">
        <path
           d="m 0,0 h 62.363 c 1.565,0 2.834,1.269 2.834,2.834 v 45.355 c 0,1.566 -1.269,2.834 -2.834,2.834 H 0 c -1.566,0 -2.834,-1.268 -2.834,-2.834 V 2.834 C -2.834,1.269 -1.566,0 0,0"
           style="fill:#ffffff;fill-opacity:1;fill-rule:nonzero;stroke:none"
           id="path1800" />
      </g>
      <g
         id="g1802"
         transform="matrix(0.35277777,0,0,-0.35277777,178.15029,226.07948)"
         style="stroke:#000000;stroke-opacity:1">
        <path
           d="m 0,0 h 62.363 c 1.565,0 2.834,1.269 2.834,2.834 v 45.355 c 0,1.566 -1.269,2.834 -2.834,2.834 H 0 c -1.566,0 -2.834,-1.268 -2.834,-2.834 V 2.834 C -2.834,1.269 -1.566,0 0,0 Z"
           style="fill:none;stroke:#000000;stroke-width:0.25;stroke-linecap:round;stroke-linejoin:round;stroke-miterlimit:10;stroke-dasharray:none;stroke-opacity:1"
           id="path1804" />
      </g>
      <g
         id="g1806"
         transform="matrix(0.35277777,0,0,-0.35277777,178.15029,208.57151)"
         style="fill:#000000;fill-opacity:1">
        <path
           d="m 0,0 c -0.795,0 -1.439,-0.645 -1.439,-1.44 v -45.354 c 0,-0.796 0.644,-1.44 1.439,-1.44 h 24.365 l 0.002,16.707 h 1.414 l -0.004,-16.707 h 36.586 c 0.795,0 1.44,0.644 1.44,1.44 V -1.44 c 0,0.795 -0.645,1.44 -1.44,1.44 z"
           style="fill:#000000;fill-opacity:1;fill-rule:nonzero;stroke:none"
           id="path1808" />
      </g>
      <g
         id="g1810"
         transform="matrix(0.35277777,0,0,-0.35277777,182.58552,217.67879)">
        <path
           d="m 0,0 0.156,0.282 0.162,0.28 0.166,0.275 0.17,0.273 0.174,0.27 0.18,0.266 0.183,0.263 0.19,0.26 L 1.574,2.425 1.77,2.678 1.971,2.927 2.178,3.172 2.387,3.414 2.6,3.652 2.818,3.886 3.041,4.117 3.266,4.343 3.496,4.565 3.73,4.784 3.967,4.998 4.209,5.208 4.453,5.415 4.703,5.616 4.955,5.813 5.211,6.007 5.471,6.195 5.734,6.379 6,6.559 6.27,6.734 6.543,6.905 6.82,7.07 7.1,7.231 l 0.396,0.217 0.402,0.208 0.407,0.199 0.412,0.189 0.416,0.18 0.418,0.17 0.424,0.161 0.427,0.15 0.432,0.141 0.436,0.132 0.435,0.121 0.441,0.111 0.444,0.102 0.447,0.091 0.449,0.081 0.45,0.071 -1.797,3.33 -0.022,0.046 -0.019,0.046 -0.016,0.046 -0.014,0.047 -0.009,0.048 -0.006,0.047 -0.002,0.047 v 0.047 l 0.004,0.047 0.006,0.047 0.009,0.045 0.012,0.045 0.014,0.044 0.017,0.044 0.02,0.042 0.023,0.04 0.024,0.039 0.029,0.038 0.029,0.037 0.032,0.034 0.033,0.032 0.035,0.03 0.039,0.028 0.039,0.025 0.043,0.024 0.043,0.02 0.045,0.018 0.049,0.015 0.047,0.011 0.05,0.009 0.051,0.006 0.053,0.001 0.033,-0.002 0.033,-0.005 0.035,-0.009 0.036,-0.011 0.039,-0.014 0.039,-0.014 0.045,-0.016 0.047,-0.016 L 23.402,9.028 15.645,0.658 15.607,0.615 15.566,0.577 15.523,0.542 15.479,0.513 15.434,0.488 15.387,0.467 15.338,0.45 15.287,0.437 15.238,0.428 15.186,0.423 15.135,0.422 15.084,0.424 15.033,0.431 14.982,0.44 14.934,0.454 14.885,0.471 14.836,0.491 14.791,0.514 14.746,0.541 14.703,0.57 14.662,0.603 14.623,0.639 14.588,0.677 14.555,0.719 14.525,0.763 14.498,0.81 14.475,0.858 14.455,0.91 14.439,0.964 14.428,1.021 14.422,1.079 14.418,1.14 V 1.227 L 14.814,5.041 14.539,5.005 14.266,4.964 13.994,4.918 13.725,4.868 13.457,4.812 13.191,4.752 12.928,4.687 12.664,4.617 12.404,4.542 12.146,4.462 11.891,4.378 11.637,4.29 11.385,4.196 11.135,4.098 10.889,3.996 10.645,3.889 10.402,3.778 10.162,3.663 9.924,3.543 9.689,3.419 9.459,3.291 9.229,3.159 9.002,3.023 8.779,2.883 8.559,2.738 8.342,2.59 8.125,2.438 7.914,2.282 7.705,2.123 7.5,1.959 7.299,1.792 7.1,1.621 6.824,1.375 6.555,1.122 6.291,0.862 6.035,0.595 5.787,0.322 5.547,0.042 5.312,-0.243 5.086,-0.535 4.867,-0.833 4.656,-1.137 4.453,-1.446 4.258,-1.761 4.072,-2.082 3.895,-2.407 3.725,-2.738 3.563,-3.073 3.41,-3.414 3.268,-3.758 3.133,-4.107 3.006,-4.461 2.891,-4.819 2.783,-5.18 2.686,-5.546 2.598,-5.915 2.52,-6.288 2.453,-6.664 2.395,-7.043 2.348,-7.426 2.311,-7.811 2.283,-8.199 2.268,-8.59 2.262,-8.984 v -12.198 h -6.799 l 0.012,36.301 -3.715,-1.141 -0.09,-0.027 -0.09,-0.014 -0.088,-0.004 -0.086,0.006 -0.084,0.018 -0.078,0.027 -0.076,0.037 -0.07,0.044 -0.065,0.054 -0.058,0.061 -0.053,0.068 -0.043,0.075 -0.035,0.081 -0.028,0.087 -0.015,0.092 -0.006,0.096 0.002,0.051 0.008,0.055 0.009,0.056 0.014,0.057 0.02,0.058 0.021,0.056 0.027,0.055 0.032,0.051 6.793,9.204 6.75,-9.204 L 4.486,15.067 4.502,15.012 4.518,14.956 4.529,14.898 4.541,14.841 4.549,14.785 4.555,14.73 4.557,14.679 4.553,14.606 4.543,14.534 4.527,14.464 4.504,14.396 4.475,14.332 4.439,14.271 4.398,14.213 4.354,14.159 4.305,14.11 4.252,14.066 4.193,14.028 4.133,13.996 4.066,13.97 4,13.951 3.93,13.939 3.855,13.935 3.838,13.937 3.816,13.942 3.791,13.949 3.764,13.957 3.734,13.964 3.703,13.971 3.67,13.976 3.637,13.978 0,15.118 Z"
           style="fill:#ffffff;fill-opacity:1;fill-rule:nonzero;stroke:none"
           id="path1812" />
      </g>
      <g
         id="g1814"
         transform="matrix(0.35277777,0,0,-0.35277777,192.30204,219.53673)">
        <path
           d="m 0,0 0.242,0.205 0.246,0.2 0.25,0.194 0.254,0.188 0.258,0.181 0.262,0.177 0.263,0.169 0.268,0.164 0.271,0.158 0.276,0.152 0.277,0.146 0.279,0.139 0.286,0.133 0.285,0.127 0.289,0.121 0.291,0.114 0.295,0.107 0.295,0.101 0.299,0.095 0.3,0.088 0.303,0.082 0.303,0.075 0.306,0.069 0.309,0.061 0.309,0.055 0.31,0.048 L 7.639,3.39 7.951,3.424 8.268,3.452 8.582,3.472 8.898,3.486 9.217,3.492 8.195,6.046 8.156,6.141 8.127,6.236 8.107,6.333 8.096,6.431 8.092,6.529 8.096,6.626 8.107,6.723 8.127,6.817 8.156,6.91 8.191,7 8.232,7.088 8.283,7.172 8.342,7.251 8.406,7.327 8.477,7.397 8.555,7.462 8.635,7.518 8.717,7.565 8.801,7.606 8.889,7.64 8.979,7.666 9.068,7.685 9.16,7.697 9.252,7.702 9.346,7.7 9.438,7.69 9.527,7.673 9.617,7.648 9.705,7.617 9.791,7.579 9.875,7.532 9.955,7.479 18.822,1.145 10.023,-5.075 9.945,-5.137 9.863,-5.19 9.779,-5.237 9.689,-5.276 9.6,-5.308 9.508,-5.332 9.414,-5.349 9.318,-5.357 9.225,-5.358 9.129,-5.352 9.035,-5.338 8.941,-5.316 8.85,-5.287 8.76,-5.25 8.674,-5.204 8.59,-5.151 l -0.084,0.063 -0.076,0.07 -0.071,0.075 -0.062,0.08 -0.053,0.085 -0.047,0.089 -0.041,0.092 -0.029,0.095 -0.023,0.097 -0.016,0.098 -0.006,0.1 0.004,0.101 0.01,0.101 0.019,0.1 0.03,0.099 0.039,0.098 L 9.395,-1.07 9.17,-1.073 8.947,-1.082 8.725,-1.096 8.502,-1.115 8.279,-1.139 8.059,-1.168 7.84,-1.202 7.621,-1.241 7.402,-1.286 7.187,-1.334 6.973,-1.389 6.76,-1.447 6.547,-1.511 6.336,-1.58 6.129,-1.653 5.922,-1.731 5.717,-1.814 5.514,-1.902 5.312,-1.994 5.115,-2.091 4.916,-2.192 4.723,-2.298 4.531,-2.409 4.342,-2.524 4.154,-2.644 3.969,-2.767 3.787,-2.896 3.609,-3.028 3.432,-3.166 3.258,-3.307 3.088,-3.453 2.922,-3.603 2.754,-3.76 2.59,-3.92 2.432,-4.084 2.277,-4.252 2.125,-4.423 1.979,-4.598 1.836,-4.775 1.699,-4.956 1.564,-5.14 1.436,-5.326 1.311,-5.516 1.189,-5.708 1.072,-5.903 0.961,-6.101 0.855,-6.301 0.752,-6.503 0.656,-6.708 0.562,-6.915 0.475,-7.124 0.393,-7.335 0.314,-7.548 0.242,-7.763 0.174,-7.98 0.111,-8.198 0.055,-8.418 0.002,-8.64 -0.045,-8.862 -0.088,-9.086 -0.123,-9.312 -0.154,-9.539 -0.18,-9.766 l -0.019,-0.229 0.002,-5.906 h -4.666 v 5.837 l 0.023,0.364 0.029,0.362 0.041,0.36 0.047,0.359 0.059,0.356 0.066,0.354 0.075,0.351 0.084,0.349 0.091,0.346 0.102,0.343 0.109,0.34 0.117,0.337 0.127,0.334 0.135,0.329 0.143,0.327 0.15,0.322 0.158,0.319 0.166,0.315 0.176,0.31 0.182,0.306 0.191,0.302 0.197,0.297 0.207,0.292 0.213,0.287 0.223,0.282 0.229,0.277 0.234,0.272 0.244,0.266 0.25,0.26 0.258,0.254 0.266,0.249 z"
           style="fill:#ffffff;fill-opacity:1;fill-rule:nonzero;stroke:none"
           id="path1816" />
      </g>
    </g>
  </g>
</svg>
