<?xml version="1.0" encoding="UTF-8" standalone="no"?>
<!-- Created with Inkscape (http://www.inkscape.org/) -->

<svg
   width="364.60248mm"
   height="488.99802mm"
   viewBox="0 0 364.60248 488.99802"
   version="1.1"
   id="svg5"
   inkscape:version="1.1.2 (b8e25be833, 2022-02-05)"
   sodipodi:docname="B-2.svg"
   xmlns:inkscape="http://www.inkscape.org/namespaces/inkscape"
   xmlns:sodipodi="http://sodipodi.sourceforge.net/DTD/sodipodi-0.dtd"
   xmlns="http://www.w3.org/2000/svg"
   xmlns:svg="http://www.w3.org/2000/svg">
  <sodipodi:namedview
     id="namedview7"
     pagecolor="#ffffff"
     bordercolor="#666666"
     borderopacity="1.0"
     inkscape:pageshadow="2"
     inkscape:pageopacity="0.0"
     inkscape:pagecheckerboard="0"
     inkscape:document-units="mm"
     showgrid="false"
     inkscape:zoom="0.23464825"
     inkscape:cx="843.81623"
     inkscape:cy="413.38472"
     inkscape:window-width="1920"
     inkscape:window-height="974"
     inkscape:window-x="-11"
     inkscape:window-y="-11"
     inkscape:window-maximized="1"
     inkscape:current-layer="layer1" />
  <defs
     id="defs2">
    <clipPath
       clipPathUnits="userSpaceOnUse"
       id="clipPath1002">
      <path
         d="M 69.035,109.632 H 544.2 V 668.401 H 69.035 Z"
         id="path1000" />
    </clipPath>
    <clipPath
       clipPathUnits="userSpaceOnUse"
       id="clipPath1462">
      <path
         d="M 69.035,109.632 H 544.2 V 668.401 H 69.035 Z"
         id="path1460" />
    </clipPath>
    <clipPath
       clipPathUnits="userSpaceOnUse"
       id="clipPath1510">
      <path
         d="M 69.035,109.632 H 544.2 V 668.401 H 69.035 Z"
         id="path1508" />
    </clipPath>
    <clipPath
       clipPathUnits="userSpaceOnUse"
       id="clipPath1510-3">
      <path
         d="M 69.035,109.632 H 544.2 V 668.401 H 69.035 Z"
         id="path1508-5" />
    </clipPath>
    <clipPath
       clipPathUnits="userSpaceOnUse"
       id="clipPath1638">
      <path
         d="M 69.035,109.632 H 544.2 V 668.401 H 69.035 Z"
         id="path1636" />
    </clipPath>
  </defs>
  <g
     inkscape:label="Calque 1"
     inkscape:groupmode="layer"
     id="layer1"
     transform="translate(-179.04181,-404.30533)">
    <g
       id="g1524"
       transform="matrix(8.819444,0,0,-8.8574303,84.77055,108.39344)"
       style="stroke-width:0.0399142">
      <path
         d="M 0,0 H -4.127"
         style="fill:none;stroke:#231f20;stroke-width:0.00977896;stroke-linecap:butt;stroke-linejoin:round;stroke-miterlimit:10;stroke-dasharray:none;stroke-opacity:1"
         id="path1526" />
    </g>
    <g
       id="g1640"
       transform="matrix(-8.8414202,0,0,-8.8194443,191.47285,512.34745)"
       style="stroke-width:0.0399503;fill:#ffffff">
      <path
         d="m 0,0 -16.135,-0.875 2.686,11.537 c 0.019,0.858 -0.66,1.568 -1.518,1.588 -0.336,0.008 -0.664,-0.092 -0.935,-0.287 l -23.93,-17.014 23.992,-17.025 c 0.699,-0.496 1.67,-0.332 2.166,0.369 0.26,0.365 0.348,0.826 0.244,1.262 l -2.705,11.218 7.494,-0.322 -1.023,-33.646 h 11.07 z"
         style="fill:#ffffff;fill-opacity:1;fill-rule:evenodd;stroke:none;stroke-width:0.0399503"
         id="path1642" />
    </g>
  </g>
</svg>
