<?xml version="1.0" encoding="UTF-8" standalone="no"?>
<!-- Created with Inkscape (http://www.inkscape.org/) -->

<svg
   width="276.19604mm"
   height="276.12549mm"
   viewBox="0 0 276.19604 276.12549"
   version="1.1"
   id="svg3922"
   inkscape:version="1.1.2 (b8e25be833, 2022-02-05)"
   sodipodi:docname="Test.svg"
   xmlns:inkscape="http://www.inkscape.org/namespaces/inkscape"
   xmlns:sodipodi="http://sodipodi.sourceforge.net/DTD/sodipodi-0.dtd"
   xmlns="http://www.w3.org/2000/svg"
   xmlns:svg="http://www.w3.org/2000/svg">
  <sodipodi:namedview
     id="namedview3924"
     pagecolor="#ffffff"
     bordercolor="#666666"
     borderopacity="1.0"
     inkscape:pageshadow="2"
     inkscape:pageopacity="0.0"
     inkscape:pagecheckerboard="0"
     inkscape:document-units="mm"
     showgrid="false"
     inkscape:zoom="0.64052329"
     inkscape:cx="423.87218"
     inkscape:cy="210.76517"
     inkscape:window-width="1920"
     inkscape:window-height="974"
     inkscape:window-x="-11"
     inkscape:window-y="-11"
     inkscape:window-maximized="1"
     inkscape:current-layer="layer1" />
  <defs
     id="defs3919">
    <clipPath
       clipPathUnits="userSpaceOnUse"
       id="clipPath1318">
      <path
         d="M 69.035,109.632 H 544.2 V 668.401 H 69.035 Z"
         id="path1316" />
    </clipPath>
  </defs>
  <g
     inkscape:label="Calque 1"
     inkscape:groupmode="layer"
     id="layer1"
     transform="translate(7.1762287,-92.789008)">
    <g
       id="g1312"
       transform="matrix(8.819444,0,0,-8.819444,-3222.9854,3856.546)"
       style="fill:#ffffff">
      <g
         id="g1314"
         clip-path="url(#clipPath1318)"
         style="fill:#ffffff">
        <g
           id="g1320"
           transform="translate(370.5762,424.443)"
           style="fill:#ffffff">
          <path
             d="m 0,0 c -0.335,-0.019 -0.663,-0.112 -0.959,-0.272 -0.549,-0.356 -0.828,-1.008 -0.708,-1.651 0.111,-0.515 0.443,-0.956 0.908,-1.205 l 9.418,-5.957 -14.608,-12.618 3.654,-3.635 3.636,-3.657 12.622,14.604 5.953,-9.42 c 0.249,-0.465 0.689,-0.797 1.205,-0.908 0.643,-0.121 1.295,0.158 1.651,0.707 0.161,0.296 0.253,0.623 0.273,0.959 L 25.364,1.196 C 25.386,1.51 25.31,1.824 25.147,2.093 24.878,2.256 24.564,2.332 24.251,2.31 Z"
             style="fill:#ffffff;fill-opacity:1;fill-rule:evenodd;stroke:none"
             id="path1322" />
        </g>
      </g>
    </g>
  </g>
</svg>
