<?xml version="1.0" encoding="UTF-8" standalone="no"?>
<!-- Created with Inkscape (http://www.inkscape.org/) -->

<svg
   width="452.19937mm"
   height="452.19937mm"
   viewBox="0 0 452.19937 452.19937"
   version="1.1"
   id="svg5"
   inkscape:version="1.1.2 (b8e25be833, 2022-02-05)"
   sodipodi:docname="B-7.svg"
   xmlns:inkscape="http://www.inkscape.org/namespaces/inkscape"
   xmlns:sodipodi="http://sodipodi.sourceforge.net/DTD/sodipodi-0.dtd"
   xmlns="http://www.w3.org/2000/svg"
   xmlns:svg="http://www.w3.org/2000/svg">
  <sodipodi:namedview
     id="namedview7"
     pagecolor="#ffffff"
     bordercolor="#666666"
     borderopacity="1.0"
     inkscape:pageshadow="2"
     inkscape:pageopacity="0.0"
     inkscape:pagecheckerboard="0"
     inkscape:document-units="mm"
     showgrid="false"
     inkscape:zoom="0.16"
     inkscape:cx="-1240.625"
     inkscape:cy="1837.5"
     inkscape:window-width="2304"
     inkscape:window-height="1190"
     inkscape:window-x="2293"
     inkscape:window-y="-11"
     inkscape:window-maximized="1"
     inkscape:current-layer="g2994" />
  <defs
     id="defs2" />
  <g
     inkscape:label="Calque 1"
     inkscape:groupmode="layer"
     id="layer1"
     transform="translate(-98.85639,-112.49897)">
    <g
       id="g2994"
       transform="matrix(25,0,0,25,-2946.4638,-5088.3876)">
      <g
         id="g1762"
         transform="matrix(0.35277777,0,0,-0.35277777,138.85656,208.07956)">
        <path
           d="m 0,0 h -45.352 c -1.566,0 -2.836,-1.27 -2.836,-2.835 v -45.353 c 0,-1.566 1.27,-2.835 2.836,-2.835 H 0 c 1.566,0 2.835,1.269 2.835,2.835 V -2.835 C 2.835,-1.27 1.566,0 0,0"
           style="fill:#ffffff;fill-opacity:1;fill-rule:nonzero;stroke:none"
           id="path1764" />
      </g>
      <g
         id="g1766"
         transform="matrix(0.35277777,0,0,-0.35277777,138.85656,208.07956)"
         style="stroke:#000000;stroke-opacity:1">
        <path
           d="m 0,0 h -45.352 c -1.566,0 -2.836,-1.27 -2.836,-2.835 v -45.353 c 0,-1.566 1.27,-2.835 2.836,-2.835 H 0 c 1.566,0 2.835,1.269 2.835,2.835 V -2.835 C 2.835,-1.27 1.566,0 0,0 Z"
           style="fill:none;stroke:#000000;stroke-width:0.25;stroke-linecap:round;stroke-linejoin:round;stroke-miterlimit:10;stroke-dasharray:none;stroke-opacity:1"
           id="path1768" />
      </g>
      <g
         id="g1770"
         transform="matrix(0.35277777,0,0,-0.35277777,122.85548,225.72533)"
         style="fill:#000000;fill-opacity:1">
        <path
           d="m 0,0 h 45.359 c 1.01,0 1.828,0.817 1.828,1.826 v 45.36 c 0,1.009 -0.818,1.827 -1.828,1.827 H 0 c -1.009,0 -1.827,-0.818 -1.827,-1.827 V 1.826 C -1.827,0.817 -1.009,0 0,0"
           style="fill:#000000;fill-opacity:1;fill-rule:nonzero;stroke:none"
           id="path1772" />
      </g>
      <g
         id="g1774"
         transform="matrix(0.35277777,0,0,-0.35277777,124.34152,223.72374)">
        <path
           d="m 0,0 v 9.949 l 0.015,0.283 0.019,0.284 0.022,0.282 0.026,0.283 0.029,0.281 0.033,0.28 0.037,0.28 0.04,0.279 0.043,0.278 0.047,0.278 0.051,0.277 0.054,0.276 0.057,0.274 0.061,0.274 0.064,0.273 0.068,0.272 0.071,0.27 0.074,0.27 0.077,0.269 0.082,0.267 0.084,0.266 0.088,0.265 0.09,0.264 0.095,0.263 0.097,0.261 0.101,0.261 0.104,0.258 0.107,0.257 0.111,0.257 0.113,0.254 0.117,0.253 0.12,0.251 0.123,0.25 0.126,0.249 0.13,0.247 0.132,0.245 0.136,0.243 0.138,0.242 0.142,0.24 0.145,0.239 0.148,0.237 0.15,0.235 0.154,0.233 0.157,0.231 0.16,0.229 0.162,0.228 0.166,0.225 0.168,0.224 0.172,0.221 0.174,0.22 0.177,0.217 0.18,0.215 0.183,0.213 0.186,0.211 0.189,0.209 0.191,0.207 0.194,0.204 0.197,0.202 0.2,0.2 0.202,0.198 0.205,0.195 0.208,0.192 0.211,0.19 0.213,0.188 0.378,0.32 0.382,0.312 0.39,0.302 0.395,0.293 0.402,0.283 0.406,0.275 0.412,0.264 0.418,0.256 0.422,0.246 0.428,0.236 0.432,0.227 0.437,0.217 0.441,0.207 0.446,0.198 0.45,0.187 0.454,0.178 0.457,0.168 0.462,0.158 0.464,0.147 0.468,0.137 0.471,0.127 0.474,0.116 0.477,0.107 0.48,0.096 0.481,0.085 0.485,0.075 0.486,0.064 0.488,0.053 0.491,0.043 0.491,0.032 0.494,0.021 0.495,0.01 -1.594,3.978 -0.03,0.074 -0.028,0.073 -0.024,0.075 -0.021,0.075 -0.017,0.075 -0.015,0.076 -0.011,0.076 -0.007,0.077 -0.005,0.075 -0.002,0.076 0.002,0.077 0.005,0.075 0.008,0.075 0.011,0.075 0.014,0.074 0.017,0.074 0.02,0.072 0.023,0.072 0.026,0.071 0.029,0.07 0.032,0.068 0.034,0.067 0.038,0.066 0.04,0.065 0.044,0.063 0.045,0.062 0.049,0.059 0.052,0.059 0.054,0.055 0.057,0.054 0.059,0.052 0.062,0.049 0.124,0.085 0.128,0.076 0.133,0.063 0.136,0.052 0.139,0.041 0.141,0.03 0.143,0.019 0.144,0.007 0.144,-0.004 0.142,-0.015 0.143,-0.026 0.14,-0.037 0.137,-0.05 0.134,-0.06 0.13,-0.072 0.125,-0.082 13.815,-9.866 -13.71,-9.692 -0.06,-0.049 -0.061,-0.046 -0.063,-0.044 -0.065,-0.04 -0.065,-0.038 -0.067,-0.035 -0.069,-0.031 -0.069,-0.029 -0.069,-0.026 -0.071,-0.023 -0.072,-0.02 -0.072,-0.018 -0.073,-0.013 -0.073,-0.012 -0.073,-0.008 -0.075,-0.005 -0.073,-0.003 -0.074,10e-4 -0.074,0.003 -0.074,0.007 -0.074,0.009 -0.073,0.013 -0.073,0.016 -0.072,0.018 -0.072,0.022 -0.071,0.024 -0.07,0.028 -0.07,0.03 -0.068,0.034 -0.068,0.036 -0.065,0.04 -0.065,0.043 -0.067,0.048 -0.064,0.051 -0.06,0.053 -0.059,0.055 -0.055,0.057 -0.053,0.06 -0.05,0.061 -0.046,0.063 -0.044,0.066 -0.041,0.066 -0.038,0.069 -0.035,0.07 -0.032,0.071 -0.029,0.072 -0.026,0.073 -0.022,0.074 -0.02,0.076 -0.016,0.076 -0.013,0.077 -0.01,0.077 -0.006,0.078 -0.003,0.078 v 0.078 l 0.003,0.078 0.007,0.079 0.011,0.078 0.014,0.079 0.017,0.078 0.021,0.078 0.025,0.077 0.028,0.076 0.032,0.076 1.886,4.11 -0.35,-0.005 -0.349,-0.014 -0.347,-0.022 -0.347,-0.029 -0.345,-0.038 -0.344,-0.045 -0.342,-0.054 -0.341,-0.061 -0.338,-0.068 -0.337,-0.078 -0.334,-0.084 -0.332,-0.091 -0.331,-0.1 -0.327,-0.107 -0.325,-0.114 -0.322,-0.122 -0.319,-0.129 -0.316,-0.136 -0.313,-0.144 -0.31,-0.15 -0.307,-0.159 -0.302,-0.165 -0.3,-0.172 -0.295,-0.179 -0.292,-0.186 -0.287,-0.193 -0.283,-0.2 -0.28,-0.207 -0.274,-0.213 -0.271,-0.22 -0.265,-0.227 -0.26,-0.234 -0.261,-0.245 -0.254,-0.25 -0.247,-0.254 -0.24,-0.262 -0.235,-0.265 -0.227,-0.271 -0.221,-0.276 -0.214,-0.28 -0.207,-0.286 -0.2,-0.29 L 9.666,17.084 9.479,16.786 9.301,16.483 9.129,16.177 8.964,15.866 8.807,15.552 8.657,15.234 8.515,14.913 8.38,14.589 8.253,14.261 8.133,13.93 8.021,13.596 7.917,13.26 7.821,12.921 7.733,12.579 7.652,12.235 7.58,11.889 7.516,11.54 7.459,11.189 7.412,10.837 7.373,10.483 7.342,10.127 V 0 Z"
           style="fill:#ffffff;fill-opacity:1;fill-rule:nonzero;stroke:none"
           id="path1776" />
      </g>
    </g>
  </g>
</svg>
