<?xml version="1.0" encoding="UTF-8" standalone="no"?>
<!-- Created with Inkscape (http://www.inkscape.org/) -->

<svg
   width="409.09933mm"
   height="289.49826mm"
   viewBox="0 0 409.09933 289.49826"
   version="1.1"
   id="svg5"
   inkscape:version="1.1.2 (b8e25be833, 2022-02-05)"
   sodipodi:docname="B-9.svg"
   xmlns:inkscape="http://www.inkscape.org/namespaces/inkscape"
   xmlns:sodipodi="http://sodipodi.sourceforge.net/DTD/sodipodi-0.dtd"
   xmlns="http://www.w3.org/2000/svg"
   xmlns:svg="http://www.w3.org/2000/svg">
  <sodipodi:namedview
     id="namedview7"
     pagecolor="#ffffff"
     bordercolor="#666666"
     borderopacity="1.0"
     inkscape:pageshadow="2"
     inkscape:pageopacity="0.0"
     inkscape:pagecheckerboard="0"
     inkscape:document-units="mm"
     showgrid="false"
     inkscape:zoom="0.64"
     inkscape:cx="-316.40625"
     inkscape:cy="-128.125"
     inkscape:window-width="2304"
     inkscape:window-height="1190"
     inkscape:window-x="2293"
     inkscape:window-y="-11"
     inkscape:window-maximized="1"
     inkscape:current-layer="layer1" />
  <defs
     id="defs2">
    <clipPath
       clipPathUnits="userSpaceOnUse"
       id="clipPath1002">
      <path
         d="M 69.035,109.632 H 544.2 V 668.401 H 69.035 Z"
         id="path1000" />
    </clipPath>
  </defs>
  <g
     inkscape:label="Calque 1"
     inkscape:groupmode="layer"
     id="layer1"
     transform="translate(-146.84732,-181.48548)">
    <g
       id="g996"
       transform="matrix(8.819444,0,0,-8.819444,-3002.5098,4993.0187)"
       style="fill:#ffffff">
      <g
         id="g998"
         clip-path="url(#clipPath1002)"
         style="fill:#ffffff">
        <g
           id="g1004"
           transform="translate(385.1455,545.5597)"
           style="fill:#ffffff">
          <path
             d="m 0,0 -0.006,-13.707 15.735,4.193 c 0.338,0.086 0.691,0.102 1.037,0.048 0.129,-0.02 0.254,-0.054 0.375,-0.1 0.957,-0.366 1.435,-1.439 1.069,-2.396 -0.161,-0.421 -0.419,-0.798 -0.753,-1.1 L -4.86,-32.825 -27.178,-13.062 c -0.333,0.302 -0.592,0.679 -0.753,1.1 -0.046,0.121 -0.08,0.246 -0.099,0.374 -0.16,1.012 0.531,1.963 1.544,2.122 0.345,0.054 0.699,0.038 1.037,-0.048 L -9.715,-13.707 -9.721,0 Z"
             style="fill:#ffffff;fill-opacity:1;fill-rule:evenodd;stroke:none"
             id="path1006" />
        </g>
      </g>
    </g>
  </g>
</svg>
